<svg width="45" height="45" viewBox="0 0 45 45" fill="none" xmlns="http://www.w3.org/2000/svg">
<path d="M0 22.5C0 21.5603 0.33688 20.7535 1.01064 20.0798C1.6844 19.406 2.49113 19.0691 3.43085 19.0691H19.0957V3.43085C19.0957 2.49114 19.4238 1.6844 20.0798 1.01064C20.7358 0.336879 21.5426 0 22.5 0C23.4397 0 24.2465 0.336879 24.9202 1.01064C25.594 1.6844 25.9308 2.49114 25.9308 3.43085V19.0691H41.5957C42.5177 19.0691 43.3156 19.406 43.9894 20.0798C44.6631 20.7535 45 21.5603 45 22.5C45 23.4574 44.6631 24.2731 43.9894 24.9468C43.3156 25.6028 42.5177 25.9309 41.5957 25.9309H25.9308V41.5957C25.9308 42.5177 25.594 43.3156 24.9202 43.9894C24.2465 44.6631 23.4397 45 22.5 45C21.5426 45 20.7358 44.6631 20.0798 43.9894C19.4238 43.3156 19.0957 42.5177 19.0957 41.5957V25.9309H3.43085C2.49113 25.9309 1.6844 25.6028 1.01064 24.9468C0.33688 24.2731 0 23.4574 0 22.5Z" fill="white"/>
</svg>
